<svg width="64" height="64" viewBox="0 0 64 64" fill="none" xmlns="http://www.w3.org/2000/svg">
<path d="M29.5385 0C15.7834 0 3.07201 8.55877 5.46216 28.9231C5.03632 29.2628 4.62524 29.6271 4.3077 30.0775C3.06955 31.8252 2.46155 34.0972 2.46155 36.5391C2.46155 39.6037 4.26832 41.9618 6.15386 43.6923C7.53232 44.96 8.94278 45.8437 10.5379 46.3089C11.7932 50.3458 14.1046 53.6935 16.8468 56C17.0907 56.231 17.3794 56.4096 17.695 56.5249C18.0106 56.6401 18.3465 56.6895 18.6819 56.6701C19.0173 56.6506 19.3452 56.5627 19.6453 56.4117C19.9455 56.2608 20.2116 56.05 20.4272 55.7923C20.6428 55.5346 20.8033 55.2355 20.899 54.9134C20.9946 54.5913 21.0233 54.2531 20.9833 53.9195C20.9433 53.5859 20.8354 53.264 20.6663 52.9737C20.4972 52.6834 20.2704 52.4308 20 52.2314C17.5237 50.1465 15.4535 47.3625 14.6929 43.7686C14.5711 43.2258 14.269 42.7402 13.8358 42.3911C13.4027 42.042 12.864 41.8499 12.3077 41.8462C12.6105 41.8462 10.7175 41.2308 9.46216 40.0763C8.20678 38.9243 7.38462 37.4794 7.38462 36.5391C7.38462 35.3969 7.65786 34.4418 8.00001 33.6935C8.33434 34.0731 8.77745 34.3404 9.26908 34.4591C9.76071 34.5779 10.277 34.5423 10.7477 34.3573C11.2184 34.1722 11.6207 33.8467 11.8998 33.4249C12.1789 33.0031 12.3213 32.5056 12.3077 32V29.9225C12.3113 29.8454 12.3113 29.7682 12.3077 29.6911C12.4062 27.936 12.6375 26.3237 12.9994 24.8468C16.3939 23.68 19.2197 25.5729 22.1539 16.9231C26.4369 29.6566 37.5286 22.3729 45.1545 22.0012C46.0505 24.1797 46.6068 26.7397 46.7692 29.6911C46.7656 29.7682 46.7656 29.8454 46.7692 29.9225V32C46.7692 32.6528 47.0286 33.2789 47.4902 33.7406C47.9518 34.2022 48.5779 34.4615 49.2308 34.4615V40.5391C48.1625 41.3785 46.9785 41.8462 46.7692 41.8462C46.2129 41.8499 45.6743 42.042 45.2411 42.3911C44.808 42.7402 44.5058 43.2258 44.384 43.7686C43.8819 46.1465 42.7643 48.1477 41.3859 49.8462C41.1788 50.0986 41.0235 50.3894 40.9288 50.7019C40.8342 51.0143 40.802 51.3424 40.8341 51.6673C40.8662 51.9922 40.962 52.3077 41.116 52.5956C41.27 52.8834 41.4792 53.1382 41.7317 53.3452C41.9842 53.5523 42.2749 53.7076 42.5874 53.8022C42.8999 53.8969 43.2279 53.9291 43.5529 53.897C43.8778 53.8649 44.1932 53.7691 44.4811 53.6151C44.769 53.4611 45.0237 53.2518 45.2308 52.9994C46.7077 51.1803 47.6874 48.8 48.4628 46.3089C49.9254 45.9396 51.2902 45.2568 52.4628 44.3077H54.1539C53.5508 47.4609 52.4406 49.8412 51.3083 51.5397C49.7083 53.9397 48.3299 54.7791 48.2314 54.8455C48.16 54.8825 47.2862 55.3625 44.768 55.9237C42.848 56.3495 40.0837 56.8049 36.384 56.9994C35.8892 54.2548 33.0142 52.1551 29.5385 52.1551C25.7132 52.1551 22.6142 54.7028 22.6142 57.8462C22.6142 60.9895 25.7157 63.5397 29.5385 63.5397C31.9286 63.5397 34.0628 62.5157 35.3083 60.9994C39.8622 60.8172 43.3231 60.2954 45.6935 59.7686C48.6129 59.1212 50.0751 58.3852 50.0751 58.3852C50.1566 58.3392 50.2348 58.2873 50.3089 58.2302C50.3089 58.2302 52.5046 56.7409 54.5379 53.6935C56.1822 51.2271 57.8117 47.6505 58.3852 42.9243C60.1772 41.5828 61.3071 39.3895 61.3071 36.9231V32C61.3071 27.9212 58.2302 24.6154 54.1539 24.6154H53.7699C53.7797 7.38954 42.2745 0 29.5385 0ZM50.8455 24.3077C50.9194 24.4111 51.0055 24.5046 51.0769 24.6154H50.8455C50.8259 24.5145 50.8677 24.4086 50.8455 24.3077ZM19.6923 29.5385C18.3866 29.5385 17.1344 30.0571 16.2112 30.9804C15.2879 31.9037 14.7692 33.1559 14.7692 34.4615C14.7692 35.7672 15.2879 37.0194 16.2112 37.9427C17.1344 38.8659 18.3866 39.3846 19.6923 39.3846C20.998 39.3846 22.2502 38.8659 23.1735 37.9427C24.0967 37.0194 24.6154 35.7672 24.6154 34.4615C24.6154 33.1559 24.0967 31.9037 23.1735 30.9804C22.2502 30.0571 20.998 29.5385 19.6923 29.5385ZM39.3846 29.5385C38.0789 29.5385 36.8267 30.0571 35.9035 30.9804C34.9802 31.9037 34.4615 33.1559 34.4615 34.4615C34.4615 35.7672 34.9802 37.0194 35.9035 37.9427C36.8267 38.8659 38.0789 39.3846 39.3846 39.3846C40.6903 39.3846 41.9425 38.8659 42.8658 37.9427C43.789 37.0194 44.3077 35.7672 44.3077 34.4615C44.3077 33.1559 43.789 31.9037 42.8658 30.9804C41.9425 30.0571 40.6903 29.5385 39.3846 29.5385Z" fill="#240090"/>
</svg>
