<svg width="197" height="41" viewBox="0 0 197 41" fill="none" xmlns="http://www.w3.org/2000/svg">
<path d="M63.06 20.7454C63.2434 20.7454 63.4059 20.8162 63.5477 20.9579L64.8732 22.396C64.1396 23.3047 63.235 24.0008 62.1596 24.4843C61.0926 24.9678 59.8088 25.2095 58.3082 25.2095C56.966 25.2095 55.7572 24.9803 54.6818 24.5218C53.6147 24.0633 52.7019 23.4255 51.9433 22.6086C51.1847 21.7916 50.6011 20.8162 50.1926 19.6824C49.7925 18.5487 49.5924 17.3107 49.5924 15.9685C49.5924 14.6097 49.8091 13.3676 50.2426 12.2421C50.6761 11.1084 51.2847 10.133 52.0683 9.31602C52.8603 8.49905 53.8023 7.86548 54.8944 7.41531C55.9865 6.9568 57.1953 6.72755 58.5208 6.72755C59.8379 6.72755 61.005 6.94429 62.0221 7.37779C63.0475 7.81129 63.9186 8.37817 64.6356 9.07844L63.5101 10.6415C63.4435 10.7416 63.3559 10.8291 63.2476 10.9041C63.1475 10.9792 63.0058 11.0167 62.8224 11.0167C62.6973 11.0167 62.5681 10.9833 62.4347 10.9166C62.3014 10.8416 62.1555 10.7541 61.9971 10.654C61.8387 10.5457 61.6553 10.4289 61.4469 10.3039C61.2385 10.1789 60.9967 10.0663 60.7216 9.96627C60.4465 9.8579 60.1255 9.77036 59.7587 9.70367C59.4003 9.62864 58.9834 9.59113 58.5083 9.59113C57.6996 9.59113 56.9577 9.73702 56.2824 10.0288C55.6155 10.3122 55.0403 10.7291 54.5568 11.2793C54.0732 11.8211 53.6981 12.4881 53.4313 13.28C53.1646 14.0637 53.0312 14.9598 53.0312 15.9685C53.0312 16.9856 53.1729 17.8901 53.4563 18.6821C53.7481 19.474 54.1399 20.141 54.6318 20.6828C55.1236 21.2247 55.703 21.6415 56.3699 21.9333C57.0369 22.2167 57.7538 22.3585 58.5208 22.3585C58.9793 22.3585 59.3919 22.3335 59.7587 22.2834C60.1339 22.2334 60.4757 22.1542 60.7841 22.0458C61.1009 21.9375 61.3969 21.7999 61.672 21.6332C61.9554 21.4581 62.2347 21.2455 62.5098 20.9954C62.5931 20.9204 62.6807 20.8621 62.7724 20.8204C62.8641 20.7704 62.9599 20.7454 63.06 20.7454Z" fill="#3500D3"/>
<path d="M81.983 18.1819L79.7821 12.1671C79.6738 11.9003 79.5612 11.5836 79.4445 11.2167C79.3278 10.8499 79.2111 10.454 79.0944 10.0288C78.986 10.454 78.8735 10.8541 78.7567 11.2292C78.64 11.5961 78.5275 11.917 78.4191 12.1921L76.2308 18.1819H81.983ZM87.9227 25.0095H85.3217C85.0299 25.0095 84.7924 24.9386 84.609 24.7969C84.4256 24.6468 84.288 24.4634 84.1963 24.2467L82.8458 20.5578H75.3555L74.0049 24.2467C73.9382 24.4384 73.809 24.6135 73.6173 24.7719C73.4256 24.9303 73.188 25.0095 72.9045 25.0095H70.2785L77.3937 6.92762H80.82L87.9227 25.0095Z" fill="#3500D3"/>
<path d="M100.511 15.5309C101.144 15.5309 101.695 15.4517 102.161 15.2933C102.637 15.1349 103.024 14.9181 103.324 14.643C103.633 14.3596 103.862 14.0261 104.012 13.6427C104.162 13.2592 104.237 12.8382 104.237 12.3797C104.237 11.4627 103.933 10.7582 103.324 10.2664C102.724 9.77453 101.803 9.52861 100.561 9.52861H98.4101V15.5309H100.511ZM109.164 25.0095H106.126C105.55 25.0095 105.133 24.7844 104.875 24.3342L101.074 18.5445C100.932 18.3278 100.773 18.1735 100.598 18.0818C100.432 17.9901 100.182 17.9443 99.8481 17.9443H98.4101V25.0095H95.0463V6.92762H100.561C101.786 6.92762 102.837 7.05684 103.712 7.31527C104.596 7.56536 105.317 7.91966 105.875 8.37817C106.442 8.83668 106.859 9.38689 107.126 10.0288C107.393 10.6624 107.526 11.3626 107.526 12.1296C107.526 12.7382 107.434 13.3134 107.251 13.8552C107.076 14.3971 106.817 14.889 106.476 15.3308C106.142 15.7726 105.725 16.1603 105.225 16.4937C104.733 16.8272 104.171 17.0898 103.537 17.2815C103.754 17.4066 103.954 17.5566 104.137 17.7317C104.321 17.8984 104.487 18.0985 104.637 18.3319L109.164 25.0095Z" fill="#3500D3"/>
<path d="M119.745 9.60363V14.618H126.073V17.2065H119.745V22.3209H127.773V25.0095H116.369V6.92762H127.773V9.60363H119.745Z" fill="#3500D3"/>
<path d="M142.771 22.3835C143.396 22.3835 143.922 22.3084 144.347 22.1584C144.772 22.0083 145.11 21.8083 145.36 21.5582C145.618 21.3081 145.802 21.0163 145.91 20.6828C146.027 20.3494 146.085 19.9951 146.085 19.6199C146.085 19.2281 146.022 18.878 145.897 18.5695C145.772 18.2527 145.576 17.986 145.31 17.7692C145.043 17.5441 144.697 17.3732 144.272 17.2565C143.855 17.1398 143.351 17.0815 142.759 17.0815H139.37V22.3835H142.771ZM139.37 9.52861V14.7556H142.046C143.196 14.7556 144.063 14.5472 144.647 14.1303C145.239 13.7135 145.535 13.0508 145.535 12.1421C145.535 11.2001 145.268 10.529 144.734 10.1288C144.201 9.72868 143.367 9.52861 142.234 9.52861H139.37ZM142.234 6.92762C143.417 6.92762 144.43 7.04016 145.272 7.26525C146.114 7.49033 146.802 7.81129 147.335 8.22811C147.877 8.64494 148.273 9.1493 148.523 9.74119C148.773 10.3331 148.899 11 148.899 11.7419C148.899 12.1671 148.836 12.5756 148.711 12.9674C148.586 13.3509 148.39 13.7135 148.123 14.0553C147.865 14.3888 147.531 14.6931 147.123 14.9682C146.723 15.2433 146.243 15.4767 145.685 15.6684C148.169 16.227 149.411 17.5692 149.411 19.695C149.411 20.4619 149.265 21.1705 148.974 21.8208C148.682 22.471 148.257 23.0337 147.698 23.5089C147.14 23.9757 146.452 24.3425 145.635 24.6093C144.818 24.8761 143.884 25.0095 142.834 25.0095H136.006V6.92762H142.234Z" fill="#3500D3"/>
<path d="M174.963 15.9685C174.963 17.294 174.743 18.5237 174.301 19.6574C173.867 20.7829 173.25 21.7582 172.45 22.5835C171.65 23.4089 170.687 24.0549 169.561 24.5218C168.436 24.9803 167.186 25.2095 165.81 25.2095C164.443 25.2095 163.197 24.9803 162.071 24.5218C160.946 24.0549 159.979 23.4089 159.17 22.5835C158.37 21.7582 157.749 20.7829 157.307 19.6574C156.865 18.5237 156.644 17.294 156.644 15.9685C156.644 14.643 156.865 13.4176 157.307 12.2922C157.749 11.1584 158.37 10.1789 159.17 9.35354C159.979 8.52823 160.946 7.88632 162.071 7.42781C163.197 6.96097 164.443 6.72755 165.81 6.72755C166.727 6.72755 167.59 6.83592 168.398 7.05267C169.207 7.26108 169.949 7.56119 170.624 7.95301C171.3 8.33649 171.904 8.8075 172.438 9.36604C172.979 9.91625 173.438 10.5332 173.813 11.2167C174.188 11.9003 174.472 12.6423 174.663 13.4426C174.863 14.2429 174.963 15.0849 174.963 15.9685ZM171.525 15.9685C171.525 14.9765 171.391 14.0887 171.125 13.305C170.858 12.5131 170.478 11.842 169.987 11.2918C169.495 10.7416 168.895 10.3206 168.186 10.0288C167.486 9.73702 166.694 9.59113 165.81 9.59113C164.926 9.59113 164.13 9.73702 163.422 10.0288C162.721 10.3206 162.121 10.7416 161.621 11.2918C161.129 11.842 160.75 12.5131 160.483 13.305C160.216 14.0887 160.083 14.9765 160.083 15.9685C160.083 16.9606 160.216 17.8526 160.483 18.6446C160.75 19.4282 161.129 20.0951 161.621 20.6453C162.121 21.1872 162.721 21.604 163.422 21.8958C164.13 22.1876 164.926 22.3335 165.81 22.3335C166.694 22.3335 167.486 22.1876 168.186 21.8958C168.895 21.604 169.495 21.1872 169.987 20.6453C170.478 20.0951 170.858 19.4282 171.125 18.6446C171.391 17.8526 171.525 16.9606 171.525 15.9685Z" fill="#3500D3"/>
<path d="M195.189 9.69117H189.737V25.0095H186.373V9.69117H180.921V6.92762H195.189V9.69117Z" fill="#3500D3"/>
<path d="M52.4476 33.8642C52.4226 33.9059 52.3948 33.9378 52.3643 33.9601C52.3365 33.9795 52.3017 33.9893 52.2601 33.9893C52.2128 33.9893 52.1572 33.9656 52.0933 33.9184C52.0294 33.8712 51.9488 33.8197 51.8516 33.7642C51.7571 33.7058 51.6418 33.653 51.5056 33.6058C51.3722 33.5585 51.2097 33.5349 51.0179 33.5349C50.8373 33.5349 50.6775 33.5599 50.5386 33.6099C50.4024 33.6572 50.2871 33.7225 50.1926 33.8059C50.1009 33.8892 50.0314 33.9879 49.9842 34.1018C49.937 34.213 49.9133 34.3338 49.9133 34.4644C49.9133 34.6312 49.9536 34.7701 50.0342 34.8813C50.1176 34.9896 50.226 35.0827 50.3593 35.1605C50.4955 35.2383 50.6483 35.3064 50.8178 35.3648C50.9901 35.4203 51.1652 35.4787 51.343 35.5398C51.5237 35.601 51.6987 35.6704 51.8682 35.7483C52.0405 35.8233 52.1934 35.9192 52.3267 36.0359C52.4629 36.1526 52.5713 36.2957 52.6519 36.4652C52.7352 36.6347 52.7769 36.8431 52.7769 37.0904C52.7769 37.3516 52.7325 37.5976 52.6435 37.8282C52.5546 38.0561 52.424 38.2548 52.2517 38.4243C52.0822 38.5938 51.8724 38.7272 51.6223 38.8244C51.375 38.9217 51.093 38.9703 50.7762 38.9703C50.3871 38.9703 50.0342 38.9008 49.7174 38.7619C49.4006 38.6202 49.1297 38.4298 48.9046 38.1908L49.138 37.8074C49.1603 37.7768 49.1867 37.7518 49.2172 37.7323C49.2506 37.7101 49.2867 37.699 49.3256 37.699C49.3617 37.699 49.402 37.7143 49.4465 37.7448C49.4937 37.7726 49.5465 37.8088 49.6049 37.8532C49.6632 37.8977 49.7299 37.9463 49.805 37.9991C49.88 38.0519 49.9647 38.1005 50.0592 38.145C50.1565 38.1895 50.2662 38.227 50.3885 38.2575C50.5108 38.2853 50.6483 38.2992 50.8012 38.2992C50.9929 38.2992 51.1638 38.2728 51.3139 38.22C51.4639 38.1672 51.5904 38.0936 51.6932 37.9991C51.7988 37.9018 51.8794 37.7865 51.9349 37.6531C51.9905 37.5198 52.0183 37.3711 52.0183 37.2071C52.0183 37.0265 51.9766 36.8792 51.8933 36.7653C51.8127 36.6486 51.7057 36.5513 51.5723 36.4735C51.4389 36.3957 51.2861 36.3304 51.1138 36.2776C50.9415 36.222 50.7664 36.1665 50.5886 36.1109C50.4107 36.0525 50.2357 35.9858 50.0634 35.9108C49.8911 35.8358 49.7383 35.7385 49.6049 35.619C49.4715 35.4995 49.3631 35.3509 49.2798 35.173C49.1992 34.9924 49.1589 34.7701 49.1589 34.5061C49.1589 34.2949 49.1992 34.0907 49.2798 33.8934C49.3631 33.6961 49.4826 33.521 49.6382 33.3682C49.7966 33.2153 49.9898 33.0931 50.2176 33.0014C50.4483 32.9097 50.7123 32.8638 51.0096 32.8638C51.343 32.8638 51.6459 32.9166 51.9183 33.0222C52.1934 33.1278 52.4351 33.2807 52.6435 33.4807L52.4476 33.8642Z" fill="#3500D3"/>
<path d="M53.6541 38.9036V34.6812H54.1001C54.2057 34.6812 54.271 34.7326 54.296 34.8354L54.3502 35.2689C54.5059 35.0772 54.6809 34.9202 54.8754 34.7979C55.07 34.6756 55.295 34.6145 55.5507 34.6145C55.8341 34.6145 56.0634 34.6937 56.2385 34.8521C56.4163 35.0105 56.5441 35.2244 56.6219 35.494C56.6831 35.3412 56.7609 35.2092 56.8554 35.098C56.9526 34.9869 57.061 34.8952 57.1805 34.8229C57.3 34.7507 57.4264 34.6979 57.5598 34.6645C57.6959 34.6312 57.8335 34.6145 57.9724 34.6145C58.1947 34.6145 58.392 34.6506 58.5643 34.7229C58.7394 34.7923 58.8867 34.8952 59.0062 35.0313C59.1284 35.1675 59.2215 35.3356 59.2854 35.5357C59.3494 35.733 59.3813 35.9594 59.3813 36.2151V38.9036H58.6352V36.2151C58.6352 35.8844 58.5629 35.6343 58.4184 35.4648C58.2739 35.2925 58.0655 35.2064 57.7932 35.2064C57.6709 35.2064 57.5542 35.2286 57.4431 35.2731C57.3347 35.3148 57.2388 35.3773 57.1555 35.4606C57.0721 35.544 57.0054 35.6496 56.9554 35.7774C56.9081 35.9025 56.8845 36.0484 56.8845 36.2151V38.9036H56.1384V36.2151C56.1384 35.8761 56.0703 35.6232 55.9342 35.4565C55.798 35.2897 55.5993 35.2064 55.3381 35.2064C55.1547 35.2064 54.9852 35.2564 54.8296 35.3564C54.674 35.4537 54.5309 35.5871 54.4003 35.7566V38.9036H53.6541Z" fill="#3500D3"/>
<path d="M62.7973 37.0029C62.4555 37.014 62.1637 37.0418 61.922 37.0863C61.683 37.1279 61.4871 37.1835 61.3343 37.253C61.1842 37.3225 61.0744 37.4044 61.005 37.4989C60.9383 37.5934 60.9049 37.699 60.9049 37.8157C60.9049 37.9269 60.923 38.0227 60.9591 38.1033C60.9952 38.1839 61.0439 38.2506 61.105 38.3034C61.1689 38.3534 61.2426 38.3909 61.3259 38.4159C61.4121 38.4382 61.5038 38.4493 61.601 38.4493C61.7316 38.4493 61.8511 38.4368 61.9595 38.4118C62.0679 38.384 62.1693 38.3451 62.2638 38.2951C62.361 38.245 62.4527 38.1853 62.5389 38.1158C62.6278 38.0463 62.714 37.9671 62.7973 37.8782V37.0029ZM60.4006 35.2772C60.634 35.0522 60.8855 34.884 61.155 34.7729C61.4246 34.6617 61.7233 34.6062 62.0512 34.6062C62.2874 34.6062 62.4972 34.6451 62.6806 34.7229C62.864 34.8007 63.0182 34.909 63.1433 35.048C63.2683 35.1869 63.3628 35.355 63.4267 35.5523C63.4906 35.7496 63.5226 35.9664 63.5226 36.2026V38.9036H63.1933C63.121 38.9036 63.0655 38.8925 63.0266 38.8703C62.9877 38.8453 62.9571 38.798 62.9349 38.7285L62.8515 38.3284C62.7404 38.4312 62.632 38.5229 62.5264 38.6035C62.4208 38.6813 62.3096 38.748 62.1929 38.8036C62.0762 38.8564 61.9512 38.8967 61.8178 38.9245C61.6872 38.955 61.5413 38.9703 61.3801 38.9703C61.2162 38.9703 61.0619 38.9481 60.9174 38.9036C60.7729 38.8564 60.6465 38.7869 60.5381 38.6952C60.4325 38.6035 60.3478 38.4882 60.2839 38.3492C60.2227 38.2075 60.1922 38.0408 60.1922 37.849C60.1922 37.6823 60.238 37.5225 60.3297 37.3697C60.4214 37.2141 60.5701 37.0765 60.7757 36.957C60.9814 36.8376 61.2495 36.7403 61.5802 36.6653C61.9109 36.5875 62.3166 36.543 62.7973 36.5319V36.2026C62.7973 35.8747 62.7265 35.6274 62.5847 35.4606C62.443 35.2911 62.236 35.2064 61.9637 35.2064C61.7803 35.2064 61.626 35.23 61.501 35.2772C61.3787 35.3217 61.2717 35.3731 61.18 35.4315C61.0911 35.487 61.0133 35.5385 60.9466 35.5857C60.8827 35.6302 60.8188 35.6524 60.7549 35.6524C60.7049 35.6524 60.6618 35.6399 60.6257 35.6149C60.5895 35.5871 60.559 35.5537 60.534 35.5148L60.4006 35.2772Z" fill="#3500D3"/>
<path d="M65.3572 35.5273C65.4906 35.2383 65.6545 35.0133 65.8491 34.8521C66.0436 34.6881 66.2812 34.6062 66.5618 34.6062C66.6507 34.6062 66.7355 34.6159 66.8161 34.6353C66.8995 34.6548 66.9731 34.6853 67.037 34.727L66.9828 35.2814C66.9661 35.3509 66.9245 35.3856 66.8578 35.3856C66.8189 35.3856 66.7619 35.3773 66.6869 35.3606C66.6118 35.3439 66.5271 35.3356 66.4326 35.3356C66.2992 35.3356 66.1797 35.355 66.0741 35.394C65.9713 35.4329 65.8782 35.4912 65.7949 35.569C65.7143 35.644 65.6406 35.7385 65.574 35.8525C65.51 35.9636 65.4517 36.0914 65.3989 36.2359V38.9036H64.6528V34.6812H65.0779C65.1585 34.6812 65.2141 34.6965 65.2447 34.727C65.2752 34.7576 65.2961 34.8104 65.3072 34.8854L65.3572 35.5273Z" fill="#3500D3"/>
<path d="M68.9857 38.9703C68.6523 38.9703 68.3952 38.8772 68.2146 38.691C68.0368 38.5049 67.9478 38.2367 67.9478 37.8866V35.3022H67.4393C67.3948 35.3022 67.3573 35.2897 67.3268 35.2647C67.2962 35.2369 67.2809 35.1953 67.2809 35.1397V34.8437L67.9728 34.7562L68.1437 33.4515C68.1521 33.4099 68.1701 33.3765 68.1979 33.3515C68.2285 33.3237 68.2674 33.3098 68.3146 33.3098H68.6898V34.7645H69.9111V35.3022H68.6898V37.8365C68.6898 38.0144 68.7328 38.1464 68.819 38.2325C68.9051 38.3187 69.0163 38.3617 69.1525 38.3617C69.2303 38.3617 69.297 38.352 69.3525 38.3326C69.4109 38.3103 69.4609 38.2867 69.5026 38.2617C69.5443 38.2367 69.579 38.2145 69.6068 38.195C69.6374 38.1728 69.6638 38.1617 69.686 38.1617C69.7249 38.1617 69.7596 38.1853 69.7902 38.2325L70.0069 38.5868C69.8791 38.7063 69.7249 38.8008 69.5443 38.8703C69.3636 38.937 69.1775 38.9703 68.9857 38.9703Z" fill="#3500D3"/>
<path d="M75.8805 36.6861L74.9426 34.256C74.9148 34.1838 74.8856 34.1004 74.8551 34.0059C74.8245 33.9087 74.7953 33.8059 74.7675 33.6975C74.7092 33.9226 74.6494 34.1101 74.5883 34.2602L73.6505 36.6861H75.8805ZM77.5644 38.9036H76.9392C76.8669 38.9036 76.8086 38.8856 76.7641 38.8494C76.7197 38.8133 76.6863 38.7675 76.6641 38.7119L76.1055 37.2697H73.4254L72.8668 38.7119C72.8501 38.7619 72.8182 38.8064 72.771 38.8453C72.7237 38.8842 72.6654 38.9036 72.5959 38.9036H71.9706L74.359 32.9305H75.176L77.5644 38.9036Z" fill="#3500D3"/>
<path d="M79.1588 38.9036H78.3502V32.9305H79.1588V38.9036Z" fill="#3500D3"/>
<path d="M82.9197 38.9036V35.3148L82.4529 35.2606C82.3945 35.2467 82.3459 35.2258 82.307 35.198C82.2709 35.1675 82.2528 35.1244 82.2528 35.0688V34.7645H82.9197V34.3561C82.9197 34.1143 82.9531 33.9003 83.0198 33.7141C83.0892 33.5252 83.1865 33.3668 83.3115 33.239C83.4394 33.1084 83.5922 33.0097 83.77 32.943C83.9479 32.8763 84.148 32.843 84.3703 32.843C84.5592 32.843 84.7329 32.8708 84.8913 32.9264L84.8746 33.2973C84.8691 33.364 84.8315 33.4001 84.7621 33.4057C84.6954 33.4113 84.6051 33.414 84.4911 33.414C84.3633 33.414 84.2466 33.4307 84.141 33.4641C84.0382 33.4974 83.9493 33.5516 83.8742 33.6266C83.7992 33.7016 83.7409 33.8003 83.6992 33.9226C83.6603 34.0448 83.6408 34.1963 83.6408 34.3769V34.7645H84.8579V35.3022H83.6658V38.9036H82.9197Z" fill="#3500D3"/>
<path d="M87.2087 34.6145C87.5172 34.6145 87.795 34.6659 88.0424 34.7687C88.2897 34.8715 88.5009 35.0174 88.6759 35.2064C88.851 35.3953 88.9844 35.6246 89.0761 35.8941C89.1706 36.1609 89.2178 36.4596 89.2178 36.7903C89.2178 37.1238 89.1706 37.4239 89.0761 37.6907C88.9844 37.9574 88.851 38.1853 88.6759 38.3742C88.5009 38.5632 88.2897 38.7091 88.0424 38.8119C87.795 38.9119 87.5172 38.962 87.2087 38.962C86.8975 38.962 86.6168 38.9119 86.3667 38.8119C86.1194 38.7091 85.9082 38.5632 85.7331 38.3742C85.5581 38.1853 85.4233 37.9574 85.3288 37.6907C85.2371 37.4239 85.1913 37.1238 85.1913 36.7903C85.1913 36.4596 85.2371 36.1609 85.3288 35.8941C85.4233 35.6246 85.5581 35.3953 85.7331 35.2064C85.9082 35.0174 86.1194 34.8715 86.3667 34.7687C86.6168 34.6659 86.8975 34.6145 87.2087 34.6145ZM87.2087 38.3826C87.6255 38.3826 87.9368 38.2436 88.1424 37.9658C88.348 37.6851 88.4508 37.2947 88.4508 36.7945C88.4508 36.2915 88.348 35.8997 88.1424 35.619C87.9368 35.3384 87.6255 35.198 87.2087 35.198C86.9975 35.198 86.8127 35.2342 86.6543 35.3064C86.4987 35.3787 86.3681 35.4829 86.2625 35.619C86.1597 35.7552 86.0819 35.9233 86.0291 36.1234C85.9791 36.3207 85.9541 36.5444 85.9541 36.7945C85.9541 37.2947 86.0569 37.6851 86.2625 37.9658C86.4709 38.2436 86.7863 38.3826 87.2087 38.3826Z" fill="#3500D3"/>
<path d="M90.8633 35.5273C90.9967 35.2383 91.1606 35.0133 91.3551 34.8521C91.5496 34.6881 91.7872 34.6062 92.0679 34.6062C92.1568 34.6062 92.2416 34.6159 92.3222 34.6353C92.4055 34.6548 92.4792 34.6853 92.5431 34.727L92.4889 35.2814C92.4722 35.3509 92.4305 35.3856 92.3638 35.3856C92.3249 35.3856 92.268 35.3773 92.1929 35.3606C92.1179 35.3439 92.0332 35.3356 91.9387 35.3356C91.8053 35.3356 91.6858 35.355 91.5802 35.394C91.4774 35.4329 91.3843 35.4912 91.3009 35.569C91.2204 35.644 91.1467 35.7385 91.08 35.8525C91.0161 35.9636 90.9578 36.0914 90.905 36.2359V38.9036H90.1588V34.6812H90.584C90.6646 34.6812 90.7202 34.6965 90.7507 34.727C90.7813 34.7576 90.8021 34.8104 90.8133 34.8854L90.8633 35.5273Z" fill="#3500D3"/>
<path d="M98.3797 33.8642C98.3547 33.9059 98.3269 33.9378 98.2964 33.9601C98.2686 33.9795 98.2338 33.9893 98.1922 33.9893C98.1449 33.9893 98.0893 33.9656 98.0254 33.9184C97.9615 33.8712 97.8809 33.8197 97.7837 33.7642C97.6892 33.7058 97.5739 33.653 97.4377 33.6058C97.3043 33.5585 97.1418 33.5349 96.95 33.5349C96.7694 33.5349 96.6096 33.5599 96.4707 33.6099C96.3345 33.6572 96.2192 33.7225 96.1247 33.8059C96.033 33.8892 95.9635 33.9879 95.9163 34.1018C95.8691 34.213 95.8454 34.3338 95.8454 34.4644C95.8454 34.6312 95.8857 34.7701 95.9663 34.8813C96.0497 34.9896 96.1581 35.0827 96.2914 35.1605C96.4276 35.2383 96.5804 35.3064 96.7499 35.3648C96.9222 35.4203 97.0973 35.4787 97.2751 35.5398C97.4558 35.601 97.6308 35.6704 97.8003 35.7483C97.9726 35.8233 98.1255 35.9192 98.2589 36.0359C98.395 36.1526 98.5034 36.2957 98.584 36.4652C98.6673 36.6347 98.709 36.8431 98.709 37.0904C98.709 37.3516 98.6646 37.5976 98.5756 37.8282C98.4867 38.0561 98.3561 38.2548 98.1838 38.4243C98.0143 38.5938 97.8045 38.7272 97.5544 38.8244C97.3071 38.9217 97.025 38.9703 96.7083 38.9703C96.3192 38.9703 95.9663 38.9008 95.6495 38.7619C95.3327 38.6202 95.0618 38.4298 94.8367 38.1908L95.0701 37.8074C95.0924 37.7768 95.1188 37.7518 95.1493 37.7323C95.1827 37.7101 95.2188 37.699 95.2577 37.699C95.2938 37.699 95.3341 37.7143 95.3786 37.7448C95.4258 37.7726 95.4786 37.8088 95.537 37.8532C95.5953 37.8977 95.662 37.9463 95.7371 37.9991C95.8121 38.0519 95.8968 38.1005 95.9913 38.145C96.0886 38.1895 96.1983 38.227 96.3206 38.2575C96.4429 38.2853 96.5804 38.2992 96.7333 38.2992C96.925 38.2992 97.0959 38.2728 97.246 38.22C97.396 38.1672 97.5225 38.0936 97.6253 37.9991C97.7309 37.9018 97.8115 37.7865 97.867 37.6531C97.9226 37.5198 97.9504 37.3711 97.9504 37.2071C97.9504 37.0265 97.9087 36.8792 97.8253 36.7653C97.7448 36.6486 97.6378 36.5513 97.5044 36.4735C97.371 36.3957 97.2182 36.3304 97.0459 36.2776C96.8736 36.222 96.6985 36.1665 96.5207 36.1109C96.3428 36.0525 96.1678 35.9858 95.9955 35.9108C95.8232 35.8358 95.6704 35.7385 95.537 35.619C95.4036 35.4995 95.2952 35.3509 95.2119 35.173C95.1313 34.9924 95.091 34.7701 95.091 34.5061C95.091 34.2949 95.1313 34.0907 95.2119 33.8934C95.2952 33.6961 95.4147 33.521 95.5703 33.3682C95.7287 33.2153 95.9219 33.0931 96.1497 33.0014C96.3804 32.9097 96.6443 32.8638 96.9417 32.8638C97.2751 32.8638 97.578 32.9166 97.8504 33.0222C98.1255 33.1278 98.3672 33.2807 98.5756 33.4807L98.3797 33.8642Z" fill="#3500D3"/>
<path d="M102.477 36.3318C102.477 36.1595 102.452 36.0025 102.402 35.8608C102.355 35.7163 102.284 35.5926 102.19 35.4898C102.098 35.3842 101.986 35.3036 101.852 35.2481C101.719 35.1897 101.567 35.1605 101.398 35.1605C101.042 35.1605 100.76 35.2647 100.552 35.4731C100.346 35.6788 100.218 35.965 100.168 36.3318H102.477ZM103.078 38.3117C102.986 38.4229 102.876 38.5201 102.748 38.6035C102.621 38.6841 102.483 38.7508 102.336 38.8036C102.191 38.8564 102.041 38.8953 101.886 38.9203C101.73 38.9481 101.576 38.962 101.423 38.962C101.131 38.962 100.862 38.9133 100.614 38.8161C100.37 38.716 100.157 38.5715 99.9765 38.3826C99.7986 38.1908 99.6597 37.9546 99.5597 37.674C99.4596 37.3933 99.4096 37.071 99.4096 36.707C99.4096 36.4124 99.4541 36.1373 99.543 35.8816C99.6347 35.626 99.7653 35.4051 99.9348 35.2189C100.104 35.0299 100.311 34.8826 100.556 34.7771C100.8 34.6687 101.076 34.6145 101.381 34.6145C101.634 34.6145 101.867 34.6576 102.081 34.7437C102.298 34.8271 102.484 34.9493 102.64 35.1105C102.798 35.2689 102.922 35.4662 103.011 35.7024C103.1 35.9358 103.144 36.2026 103.144 36.5027C103.144 36.6194 103.132 36.6972 103.107 36.7361C103.082 36.775 103.035 36.7945 102.965 36.7945H100.143C100.152 37.0612 100.188 37.2933 100.252 37.4906C100.318 37.6879 100.41 37.8532 100.527 37.9866C100.643 38.1172 100.782 38.2159 100.944 38.2825C101.105 38.3465 101.285 38.3784 101.485 38.3784C101.672 38.3784 101.831 38.3576 101.965 38.3159C102.101 38.2714 102.218 38.2242 102.315 38.1742C102.412 38.1242 102.493 38.0783 102.557 38.0366C102.623 37.9922 102.68 37.9699 102.728 37.9699C102.789 37.9699 102.836 37.9935 102.869 38.0408L103.078 38.3117Z" fill="#3500D3"/>
<path d="M106.344 37.0029C106.002 37.014 105.711 37.0418 105.469 37.0863C105.23 37.1279 105.034 37.1835 104.881 37.253C104.731 37.3225 104.621 37.4044 104.552 37.4989C104.485 37.5934 104.452 37.699 104.452 37.8157C104.452 37.9269 104.47 38.0227 104.506 38.1033C104.542 38.1839 104.591 38.2506 104.652 38.3034C104.716 38.3534 104.789 38.3909 104.873 38.4159C104.959 38.4382 105.051 38.4493 105.148 38.4493C105.278 38.4493 105.398 38.4368 105.506 38.4118C105.615 38.384 105.716 38.3451 105.811 38.2951C105.908 38.245 105.999 38.1853 106.086 38.1158C106.175 38.0463 106.261 37.9671 106.344 37.8782V37.0029ZM103.947 35.2772C104.181 35.0522 104.432 34.884 104.702 34.7729C104.971 34.6617 105.27 34.6062 105.598 34.6062C105.834 34.6062 106.044 34.6451 106.227 34.7229C106.411 34.8007 106.565 34.909 106.69 35.048C106.815 35.1869 106.91 35.355 106.973 35.5523C107.037 35.7496 107.069 35.9664 107.069 36.2026V38.9036H106.74C106.668 38.9036 106.612 38.8925 106.573 38.8703C106.534 38.8453 106.504 38.798 106.482 38.7285L106.398 38.3284C106.287 38.4312 106.179 38.5229 106.073 38.6035C105.968 38.6813 105.856 38.748 105.74 38.8036C105.623 38.8564 105.498 38.8967 105.365 38.9245C105.234 38.955 105.088 38.9703 104.927 38.9703C104.763 38.9703 104.609 38.9481 104.464 38.9036C104.32 38.8564 104.193 38.7869 104.085 38.6952C103.979 38.6035 103.895 38.4882 103.831 38.3492C103.769 38.2075 103.739 38.0408 103.739 37.849C103.739 37.6823 103.785 37.5225 103.876 37.3697C103.968 37.2141 104.117 37.0765 104.322 36.957C104.528 36.8376 104.796 36.7403 105.127 36.6653C105.458 36.5875 105.863 36.543 106.344 36.5319V36.2026C106.344 35.8747 106.273 35.6274 106.131 35.4606C105.99 35.2911 105.783 35.2064 105.51 35.2064C105.327 35.2064 105.173 35.23 105.048 35.2772C104.925 35.3217 104.818 35.3731 104.727 35.4315C104.638 35.487 104.56 35.5385 104.493 35.5857C104.429 35.6302 104.366 35.6524 104.302 35.6524C104.252 35.6524 104.209 35.6399 104.172 35.6149C104.136 35.5871 104.106 35.5537 104.081 35.5148L103.947 35.2772Z" fill="#3500D3"/>
<path d="M108.2 38.9036V34.6812H108.646C108.751 34.6812 108.816 34.7326 108.841 34.8354L108.896 35.2689C109.051 35.0772 109.226 34.9202 109.421 34.7979C109.615 34.6756 109.84 34.6145 110.096 34.6145C110.38 34.6145 110.609 34.6937 110.784 34.8521C110.962 35.0105 111.09 35.2244 111.167 35.494C111.228 35.3412 111.306 35.2092 111.401 35.098C111.498 34.9869 111.606 34.8952 111.726 34.8229C111.845 34.7507 111.972 34.6979 112.105 34.6645C112.241 34.6312 112.379 34.6145 112.518 34.6145C112.74 34.6145 112.937 34.6506 113.11 34.7229C113.285 34.7923 113.432 34.8952 113.552 35.0313C113.674 35.1675 113.767 35.3356 113.831 35.5357C113.895 35.733 113.927 35.9594 113.927 36.2151V38.9036H113.181V36.2151C113.181 35.8844 113.108 35.6343 112.964 35.4648C112.819 35.2925 112.611 35.2064 112.339 35.2064C112.216 35.2064 112.1 35.2286 111.988 35.2731C111.88 35.3148 111.784 35.3773 111.701 35.4606C111.617 35.544 111.551 35.6496 111.501 35.7774C111.454 35.9025 111.43 36.0484 111.43 36.2151V38.9036H110.684V36.2151C110.684 35.8761 110.616 35.6232 110.48 35.4565C110.343 35.2897 110.145 35.2064 109.883 35.2064C109.7 35.2064 109.531 35.2564 109.375 35.3564C109.219 35.4537 109.076 35.5871 108.946 35.7566V38.9036H108.2Z" fill="#3500D3"/>
<path d="M115.821 32.7638V38.9036H115.079V32.7638H115.821Z" fill="#3500D3"/>
<path d="M119.851 36.3318C119.851 36.1595 119.826 36.0025 119.776 35.8608C119.728 35.7163 119.657 35.5926 119.563 35.4898C119.471 35.3842 119.359 35.3036 119.225 35.2481C119.092 35.1897 118.94 35.1605 118.771 35.1605C118.415 35.1605 118.133 35.2647 117.925 35.4731C117.719 35.6788 117.591 35.965 117.541 36.3318H119.851ZM120.451 38.3117C120.359 38.4229 120.249 38.5201 120.121 38.6035C119.994 38.6841 119.856 38.7508 119.709 38.8036C119.564 38.8564 119.414 38.8953 119.259 38.9203C119.103 38.9481 118.949 38.962 118.796 38.962C118.504 38.962 118.235 38.9133 117.987 38.8161C117.743 38.716 117.53 38.5715 117.35 38.3826C117.172 38.1908 117.033 37.9546 116.933 37.674C116.833 37.3933 116.783 37.071 116.783 36.707C116.783 36.4124 116.827 36.1373 116.916 35.8816C117.008 35.626 117.138 35.4051 117.308 35.2189C117.477 35.0299 117.684 34.8826 117.929 34.7771C118.174 34.6687 118.449 34.6145 118.754 34.6145C119.007 34.6145 119.241 34.6576 119.455 34.7437C119.671 34.8271 119.857 34.9493 120.013 35.1105C120.172 35.2689 120.295 35.4662 120.384 35.7024C120.473 35.9358 120.517 36.2026 120.517 36.5027C120.517 36.6194 120.505 36.6972 120.48 36.7361C120.455 36.775 120.408 36.7945 120.338 36.7945H117.516C117.525 37.0612 117.561 37.2933 117.625 37.4906C117.691 37.6879 117.783 37.8532 117.9 37.9866C118.017 38.1172 118.155 38.2159 118.317 38.2825C118.478 38.3465 118.658 38.3784 118.859 38.3784C119.045 38.3784 119.204 38.3576 119.338 38.3159C119.474 38.2714 119.591 38.2242 119.688 38.1742C119.785 38.1242 119.866 38.0783 119.93 38.0366C119.996 37.9922 120.053 37.9699 120.101 37.9699C120.162 37.9699 120.209 37.9935 120.242 38.0408L120.451 38.3117Z" fill="#3500D3"/>
<path d="M123.888 35.3773C123.855 35.4384 123.803 35.469 123.734 35.469C123.692 35.469 123.645 35.4537 123.592 35.4231C123.539 35.3926 123.474 35.3592 123.396 35.3231C123.321 35.2842 123.231 35.2495 123.125 35.2189C123.02 35.1855 122.895 35.1689 122.75 35.1689C122.625 35.1689 122.513 35.1855 122.413 35.2189C122.312 35.2495 122.226 35.2925 122.154 35.3481C122.085 35.4037 122.03 35.469 121.992 35.544C121.955 35.6163 121.937 35.6955 121.937 35.7816C121.937 35.89 121.968 35.9803 122.029 36.0525C122.093 36.1248 122.176 36.1873 122.279 36.2401C122.382 36.2929 122.499 36.3401 122.629 36.3818C122.76 36.4207 122.893 36.4638 123.029 36.511C123.168 36.5555 123.303 36.6055 123.434 36.6611C123.564 36.7167 123.681 36.7861 123.784 36.8695C123.887 36.9529 123.969 37.0557 124.03 37.178C124.094 37.2975 124.126 37.4419 124.126 37.6115C124.126 37.806 124.091 37.9866 124.021 38.1533C123.952 38.3173 123.849 38.4604 123.713 38.5827C123.577 38.7021 123.41 38.7966 123.213 38.8661C123.016 38.9356 122.788 38.9703 122.529 38.9703C122.235 38.9703 121.968 38.9231 121.729 38.8286C121.49 38.7313 121.287 38.6077 121.12 38.4576L121.295 38.1742C121.318 38.138 121.344 38.1103 121.375 38.0908C121.405 38.0714 121.444 38.0616 121.491 38.0616C121.541 38.0616 121.594 38.0811 121.65 38.12C121.705 38.1589 121.772 38.202 121.85 38.2492C121.93 38.2964 122.028 38.3395 122.142 38.3784C122.256 38.4173 122.397 38.4368 122.567 38.4368C122.711 38.4368 122.838 38.4187 122.946 38.3826C123.054 38.3437 123.145 38.2923 123.217 38.2284C123.289 38.1644 123.342 38.0908 123.375 38.0074C123.412 37.9241 123.43 37.8352 123.43 37.7407C123.43 37.624 123.398 37.5281 123.334 37.4531C123.273 37.3753 123.191 37.31 123.088 37.2572C122.985 37.2016 122.867 37.1543 122.733 37.1154C122.603 37.0738 122.468 37.0307 122.329 36.9862C122.193 36.9418 122.058 36.8917 121.925 36.8362C121.794 36.7778 121.678 36.7056 121.575 36.6194C121.472 36.5333 121.389 36.4277 121.325 36.3026C121.263 36.1748 121.233 36.0206 121.233 35.84C121.233 35.6788 121.266 35.5246 121.333 35.3773C121.4 35.2272 121.497 35.0966 121.625 34.9855C121.753 34.8715 121.91 34.7812 122.096 34.7145C122.282 34.6478 122.494 34.6145 122.733 34.6145C123.011 34.6145 123.26 34.659 123.48 34.7479C123.702 34.834 123.894 34.9535 124.055 35.1063L123.888 35.3773Z" fill="#3500D3"/>
<path d="M127.495 35.3773C127.461 35.4384 127.41 35.469 127.34 35.469C127.299 35.469 127.251 35.4537 127.199 35.4231C127.146 35.3926 127.081 35.3592 127.003 35.3231C126.928 35.2842 126.837 35.2495 126.732 35.2189C126.626 35.1855 126.501 35.1689 126.357 35.1689C126.232 35.1689 126.119 35.1855 126.019 35.2189C125.919 35.2495 125.833 35.2925 125.761 35.3481C125.691 35.4037 125.637 35.469 125.598 35.544C125.562 35.6163 125.544 35.6955 125.544 35.7816C125.544 35.89 125.574 35.9803 125.636 36.0525C125.699 36.1248 125.783 36.1873 125.886 36.2401C125.988 36.2929 126.105 36.3401 126.236 36.3818C126.366 36.4207 126.5 36.4638 126.636 36.511C126.775 36.5555 126.91 36.6055 127.04 36.6611C127.171 36.7167 127.288 36.7861 127.39 36.8695C127.493 36.9529 127.575 37.0557 127.636 37.178C127.7 37.2975 127.732 37.4419 127.732 37.6115C127.732 37.806 127.697 37.9866 127.628 38.1533C127.559 38.3173 127.456 38.4604 127.32 38.5827C127.183 38.7021 127.017 38.7966 126.819 38.8661C126.622 38.9356 126.394 38.9703 126.136 38.9703C125.841 38.9703 125.574 38.9231 125.335 38.8286C125.096 38.7313 124.894 38.6077 124.727 38.4576L124.902 38.1742C124.924 38.138 124.951 38.1103 124.981 38.0908C125.012 38.0714 125.051 38.0616 125.098 38.0616C125.148 38.0616 125.201 38.0811 125.256 38.12C125.312 38.1589 125.379 38.202 125.456 38.2492C125.537 38.2964 125.634 38.3395 125.748 38.3784C125.862 38.4173 126.004 38.4368 126.173 38.4368C126.318 38.4368 126.444 38.4187 126.553 38.3826C126.661 38.3437 126.751 38.2923 126.824 38.2284C126.896 38.1644 126.949 38.0908 126.982 38.0074C127.018 37.9241 127.036 37.8352 127.036 37.7407C127.036 37.624 127.004 37.5281 126.94 37.4531C126.879 37.3753 126.797 37.31 126.694 37.2572C126.591 37.2016 126.473 37.1543 126.34 37.1154C126.209 37.0738 126.075 37.0307 125.936 36.9862C125.799 36.9418 125.665 36.8917 125.531 36.8362C125.401 36.7778 125.284 36.7056 125.181 36.6194C125.078 36.5333 124.995 36.4277 124.931 36.3026C124.87 36.1748 124.839 36.0206 124.839 35.84C124.839 35.6788 124.873 35.5246 124.939 35.3773C125.006 35.2272 125.103 35.0966 125.231 34.9855C125.359 34.8715 125.516 34.7812 125.702 34.7145C125.888 34.6478 126.101 34.6145 126.34 34.6145C126.618 34.6145 126.867 34.659 127.086 34.7479C127.308 34.834 127.5 34.9535 127.661 35.1063L127.495 35.3773Z" fill="#3500D3"/>
<path d="M135.143 37.6698C135.188 37.6698 135.226 37.6879 135.26 37.724L135.581 38.07C135.336 38.3534 135.039 38.5743 134.689 38.7327C134.341 38.8911 133.92 38.9703 133.426 38.9703C132.998 38.9703 132.609 38.8967 132.259 38.7494C131.909 38.5993 131.61 38.3909 131.363 38.1241C131.115 37.8546 130.923 37.5323 130.787 37.1571C130.651 36.782 130.583 36.3693 130.583 35.9192C130.583 35.469 130.654 35.0563 130.796 34.6812C130.937 34.306 131.136 33.9837 131.392 33.7141C131.65 33.4446 131.959 33.2362 132.317 33.0889C132.676 32.9389 133.072 32.8638 133.505 32.8638C133.93 32.8638 134.305 32.9319 134.63 33.0681C134.956 33.2042 135.242 33.389 135.489 33.6224L135.222 33.9934C135.206 34.0212 135.183 34.0448 135.156 34.0643C135.131 34.081 135.096 34.0893 135.051 34.0893C135.001 34.0893 134.94 34.0629 134.868 34.0101C134.796 33.9545 134.701 33.8934 134.585 33.8267C134.468 33.76 134.322 33.7003 134.147 33.6475C133.972 33.5919 133.756 33.5641 133.501 33.5641C133.192 33.5641 132.91 33.6183 132.655 33.7267C132.399 33.8322 132.178 33.9865 131.992 34.1893C131.809 34.3922 131.665 34.6395 131.563 34.9313C131.46 35.2231 131.408 35.5523 131.408 35.9192C131.408 36.2915 131.461 36.6236 131.567 36.9154C131.675 37.2071 131.821 37.4545 132.004 37.6573C132.191 37.8574 132.409 38.0102 132.659 38.1158C132.912 38.2214 133.184 38.2742 133.476 38.2742C133.654 38.2742 133.813 38.2645 133.955 38.245C134.1 38.2228 134.232 38.1895 134.351 38.145C134.473 38.1005 134.586 38.045 134.689 37.9783C134.794 37.9088 134.899 37.8268 135.001 37.7323C135.049 37.6907 135.096 37.6698 135.143 37.6698Z" fill="#3500D3"/>
<path d="M139.75 34.6812V38.9036H139.309C139.203 38.9036 139.136 38.8522 139.108 38.7494L139.05 38.2951C138.867 38.4979 138.661 38.6619 138.433 38.7869C138.205 38.9092 137.944 38.9703 137.65 38.9703C137.419 38.9703 137.215 38.9328 137.037 38.8578C136.862 38.78 136.714 38.6716 136.595 38.5326C136.475 38.3937 136.385 38.2256 136.324 38.0283C136.266 37.831 136.236 37.6128 136.236 37.3739V34.6812H136.978V37.3739C136.978 37.6934 137.051 37.9408 137.195 38.1158C137.342 38.2909 137.566 38.3784 137.866 38.3784C138.086 38.3784 138.29 38.327 138.479 38.2242C138.671 38.1186 138.847 37.9741 139.008 37.7907V34.6812H139.75Z" fill="#3500D3"/>
<path d="M143.386 35.3773C143.353 35.4384 143.301 35.469 143.232 35.469C143.19 35.469 143.143 35.4537 143.09 35.4231C143.037 35.3926 142.972 35.3592 142.894 35.3231C142.819 35.2842 142.729 35.2495 142.623 35.2189C142.518 35.1855 142.393 35.1689 142.248 35.1689C142.123 35.1689 142.01 35.1855 141.91 35.2189C141.81 35.2495 141.724 35.2925 141.652 35.3481C141.583 35.4037 141.528 35.469 141.489 35.544C141.453 35.6163 141.435 35.6955 141.435 35.7816C141.435 35.89 141.466 35.9803 141.527 36.0525C141.591 36.1248 141.674 36.1873 141.777 36.2401C141.88 36.2929 141.997 36.3401 142.127 36.3818C142.258 36.4207 142.391 36.4638 142.527 36.511C142.666 36.5555 142.801 36.6055 142.932 36.6611C143.062 36.7167 143.179 36.7861 143.282 36.8695C143.385 36.9529 143.467 37.0557 143.528 37.178C143.592 37.2975 143.624 37.4419 143.624 37.6115C143.624 37.806 143.589 37.9866 143.519 38.1533C143.45 38.3173 143.347 38.4604 143.211 38.5827C143.075 38.7021 142.908 38.7966 142.711 38.8661C142.513 38.9356 142.286 38.9703 142.027 38.9703C141.733 38.9703 141.466 38.9231 141.227 38.8286C140.988 38.7313 140.785 38.6077 140.618 38.4576L140.793 38.1742C140.816 38.138 140.842 38.1103 140.873 38.0908C140.903 38.0714 140.942 38.0616 140.989 38.0616C141.039 38.0616 141.092 38.0811 141.148 38.12C141.203 38.1589 141.27 38.202 141.348 38.2492C141.428 38.2964 141.526 38.3395 141.64 38.3784C141.753 38.4173 141.895 38.4368 142.065 38.4368C142.209 38.4368 142.336 38.4187 142.444 38.3826C142.552 38.3437 142.643 38.2923 142.715 38.2284C142.787 38.1644 142.84 38.0908 142.873 38.0074C142.909 37.9241 142.928 37.8352 142.928 37.7407C142.928 37.624 142.896 37.5281 142.832 37.4531C142.771 37.3753 142.689 37.31 142.586 37.2572C142.483 37.2016 142.365 37.1543 142.231 37.1154C142.101 37.0738 141.966 37.0307 141.827 36.9862C141.691 36.9418 141.556 36.8917 141.423 36.8362C141.292 36.7778 141.175 36.7056 141.073 36.6194C140.97 36.5333 140.886 36.4277 140.823 36.3026C140.761 36.1748 140.731 36.0206 140.731 35.84C140.731 35.6788 140.764 35.5246 140.831 35.3773C140.898 35.2272 140.995 35.0966 141.123 34.9855C141.25 34.8715 141.408 34.7812 141.594 34.7145C141.78 34.6478 141.992 34.6145 142.231 34.6145C142.509 34.6145 142.758 34.659 142.978 34.7479C143.2 34.834 143.392 34.9535 143.553 35.1063L143.386 35.3773Z" fill="#3500D3"/>
<path d="M145.83 38.9703C145.496 38.9703 145.239 38.8772 145.058 38.691C144.881 38.5049 144.792 38.2367 144.792 37.8866V35.3022H144.283C144.239 35.3022 144.201 35.2897 144.171 35.2647C144.14 35.2369 144.125 35.1953 144.125 35.1397V34.8437L144.817 34.7562L144.988 33.4515C144.996 33.4099 145.014 33.3765 145.042 33.3515C145.072 33.3237 145.111 33.3098 145.159 33.3098H145.534V34.7645H146.755V35.3022H145.534V37.8365C145.534 38.0144 145.577 38.1464 145.663 38.2325C145.749 38.3187 145.86 38.3617 145.996 38.3617C146.074 38.3617 146.141 38.352 146.196 38.3326C146.255 38.3103 146.305 38.2867 146.346 38.2617C146.388 38.2367 146.423 38.2145 146.451 38.195C146.481 38.1728 146.508 38.1617 146.53 38.1617C146.569 38.1617 146.603 38.1853 146.634 38.2325L146.851 38.5868C146.723 38.7063 146.569 38.8008 146.388 38.8703C146.208 38.937 146.021 38.9703 145.83 38.9703Z" fill="#3500D3"/>
<path d="M149.276 34.6145C149.585 34.6145 149.863 34.6659 150.11 34.7687C150.357 34.8715 150.569 35.0174 150.744 35.2064C150.919 35.3953 151.052 35.6246 151.144 35.8941C151.238 36.1609 151.286 36.4596 151.286 36.7903C151.286 37.1238 151.238 37.4239 151.144 37.6907C151.052 37.9574 150.919 38.1853 150.744 38.3742C150.569 38.5632 150.357 38.7091 150.11 38.8119C149.863 38.9119 149.585 38.962 149.276 38.962C148.965 38.962 148.685 38.9119 148.434 38.8119C148.187 38.7091 147.976 38.5632 147.801 38.3742C147.626 38.1853 147.491 37.9574 147.397 37.6907C147.305 37.4239 147.259 37.1238 147.259 36.7903C147.259 36.4596 147.305 36.1609 147.397 35.8941C147.491 35.6246 147.626 35.3953 147.801 35.2064C147.976 35.0174 148.187 34.8715 148.434 34.7687C148.685 34.6659 148.965 34.6145 149.276 34.6145ZM149.276 38.3826C149.693 38.3826 150.005 38.2436 150.21 37.9658C150.416 37.6851 150.519 37.2947 150.519 36.7945C150.519 36.2915 150.416 35.8997 150.21 35.619C150.005 35.3384 149.693 35.198 149.276 35.198C149.065 35.198 148.88 35.2342 148.722 35.3064C148.566 35.3787 148.436 35.4829 148.33 35.619C148.227 35.7552 148.15 35.9233 148.097 36.1234C148.047 36.3207 148.022 36.5444 148.022 36.7945C148.022 37.2947 148.125 37.6851 148.33 37.9658C148.539 38.2436 148.854 38.3826 149.276 38.3826Z" fill="#3500D3"/>
<path d="M152.227 38.9036V34.6812H152.673C152.778 34.6812 152.844 34.7326 152.869 34.8354L152.923 35.2689C153.078 35.0772 153.253 34.9202 153.448 34.7979C153.642 34.6756 153.868 34.6145 154.123 34.6145C154.407 34.6145 154.636 34.6937 154.811 34.8521C154.989 35.0105 155.117 35.2244 155.194 35.494C155.256 35.3412 155.333 35.2092 155.428 35.098C155.525 34.9869 155.633 34.8952 155.753 34.8229C155.872 34.7507 155.999 34.6979 156.132 34.6645C156.268 34.6312 156.406 34.6145 156.545 34.6145C156.767 34.6145 156.965 34.6506 157.137 34.7229C157.312 34.7923 157.459 34.8952 157.579 35.0313C157.701 35.1675 157.794 35.3356 157.858 35.5357C157.922 35.733 157.954 35.9594 157.954 36.2151V38.9036H157.208V36.2151C157.208 35.8844 157.135 35.6343 156.991 35.4648C156.846 35.2925 156.638 35.2064 156.366 35.2064C156.243 35.2064 156.127 35.2286 156.016 35.2731C155.907 35.3148 155.811 35.3773 155.728 35.4606C155.645 35.544 155.578 35.6496 155.528 35.7774C155.481 35.9025 155.457 36.0484 155.457 36.2151V38.9036H154.711V36.2151C154.711 35.8761 154.643 35.6232 154.507 35.4565C154.37 35.2897 154.172 35.2064 153.911 35.2064C153.727 35.2064 153.558 35.2564 153.402 35.3564C153.246 35.4537 153.103 35.5871 152.973 35.7566V38.9036H152.227Z" fill="#3500D3"/>
<path d="M161.907 36.3318C161.907 36.1595 161.882 36.0025 161.832 35.8608C161.785 35.7163 161.714 35.5926 161.62 35.4898C161.528 35.3842 161.416 35.3036 161.282 35.2481C161.149 35.1897 160.997 35.1605 160.828 35.1605C160.472 35.1605 160.19 35.2647 159.982 35.4731C159.776 35.6788 159.648 35.965 159.598 36.3318H161.907ZM162.508 38.3117C162.416 38.4229 162.306 38.5201 162.178 38.6035C162.051 38.6841 161.913 38.7508 161.766 38.8036C161.621 38.8564 161.471 38.8953 161.316 38.9203C161.16 38.9481 161.006 38.962 160.853 38.962C160.561 38.962 160.292 38.9133 160.044 38.8161C159.8 38.716 159.587 38.5715 159.407 38.3826C159.229 38.1908 159.09 37.9546 158.99 37.674C158.89 37.3933 158.84 37.071 158.84 36.707C158.84 36.4124 158.884 36.1373 158.973 35.8816C159.065 35.626 159.195 35.4051 159.365 35.2189C159.534 35.0299 159.741 34.8826 159.986 34.7771C160.23 34.6687 160.506 34.6145 160.811 34.6145C161.064 34.6145 161.298 34.6576 161.512 34.7437C161.728 34.8271 161.914 34.9493 162.07 35.1105C162.228 35.2689 162.352 35.4662 162.441 35.7024C162.53 35.9358 162.574 36.2026 162.574 36.5027C162.574 36.6194 162.562 36.6972 162.537 36.7361C162.512 36.775 162.465 36.7945 162.395 36.7945H159.573C159.582 37.0612 159.618 37.2933 159.682 37.4906C159.748 37.6879 159.84 37.8532 159.957 37.9866C160.073 38.1172 160.212 38.2159 160.374 38.2825C160.535 38.3465 160.715 38.3784 160.915 38.3784C161.102 38.3784 161.261 38.3576 161.395 38.3159C161.531 38.2714 161.648 38.2242 161.745 38.1742C161.842 38.1242 161.923 38.0783 161.987 38.0366C162.053 37.9922 162.11 37.9699 162.158 37.9699C162.219 37.9699 162.266 37.9935 162.299 38.0408L162.508 38.3117Z" fill="#3500D3"/>
<path d="M164.19 35.5273C164.324 35.2383 164.488 35.0133 164.682 34.8521C164.877 34.6881 165.114 34.6062 165.395 34.6062C165.484 34.6062 165.568 34.6159 165.649 34.6353C165.732 34.6548 165.806 34.6853 165.87 34.727L165.816 35.2814C165.799 35.3509 165.757 35.3856 165.691 35.3856C165.652 35.3856 165.595 35.3773 165.52 35.3606C165.445 35.3439 165.36 35.3356 165.266 35.3356C165.132 35.3356 165.013 35.355 164.907 35.394C164.804 35.4329 164.711 35.4912 164.628 35.569C164.547 35.644 164.474 35.7385 164.407 35.8525C164.343 35.9636 164.285 36.0914 164.232 36.2359V38.9036H163.486V34.6812H163.911C163.992 34.6812 164.047 34.6965 164.078 34.727C164.108 34.7576 164.129 34.8104 164.14 34.8854L164.19 35.5273Z" fill="#3500D3"/>
<path d="M171.707 33.8642C171.682 33.9059 171.654 33.9378 171.623 33.9601C171.595 33.9795 171.561 33.9893 171.519 33.9893C171.472 33.9893 171.416 33.9656 171.352 33.9184C171.288 33.8712 171.208 33.8197 171.111 33.7642C171.016 33.7058 170.901 33.653 170.765 33.6058C170.631 33.5585 170.469 33.5349 170.277 33.5349C170.096 33.5349 169.937 33.5599 169.798 33.6099C169.661 33.6572 169.546 33.7225 169.452 33.8059C169.36 33.8892 169.29 33.9879 169.243 34.1018C169.196 34.213 169.172 34.3338 169.172 34.4644C169.172 34.6312 169.213 34.7701 169.293 34.8813C169.377 34.9896 169.485 35.0827 169.618 35.1605C169.755 35.2383 169.907 35.3064 170.077 35.3648C170.249 35.4203 170.424 35.4787 170.602 35.5398C170.783 35.601 170.958 35.6704 171.127 35.7483C171.3 35.8233 171.452 35.9192 171.586 36.0359C171.722 36.1526 171.83 36.2957 171.911 36.4652C171.994 36.6347 172.036 36.8431 172.036 37.0904C172.036 37.3516 171.991 37.5976 171.903 37.8282C171.814 38.0561 171.683 38.2548 171.511 38.4243C171.341 38.5938 171.131 38.7272 170.881 38.8244C170.634 38.9217 170.352 38.9703 170.035 38.9703C169.646 38.9703 169.293 38.9008 168.976 38.7619C168.66 38.6202 168.389 38.4298 168.164 38.1908L168.397 37.8074C168.419 37.7768 168.446 37.7518 168.476 37.7323C168.51 37.7101 168.546 37.699 168.585 37.699C168.621 37.699 168.661 37.7143 168.705 37.7448C168.753 37.7726 168.806 37.8088 168.864 37.8532C168.922 37.8977 168.989 37.9463 169.064 37.9991C169.139 38.0519 169.224 38.1005 169.318 38.145C169.415 38.1895 169.525 38.227 169.648 38.2575C169.77 38.2853 169.907 38.2992 170.06 38.2992C170.252 38.2992 170.423 38.2728 170.573 38.22C170.723 38.1672 170.849 38.0936 170.952 37.9991C171.058 37.9018 171.138 37.7865 171.194 37.6531C171.25 37.5198 171.277 37.3711 171.277 37.2071C171.277 37.0265 171.236 36.8792 171.152 36.7653C171.072 36.6486 170.965 36.5513 170.831 36.4735C170.698 36.3957 170.545 36.3304 170.373 36.2776C170.201 36.222 170.025 36.1665 169.848 36.1109C169.67 36.0525 169.495 35.9858 169.322 35.9108C169.15 35.8358 168.997 35.7385 168.864 35.619C168.731 35.4995 168.622 35.3509 168.539 35.173C168.458 34.9924 168.418 34.7701 168.418 34.5061C168.418 34.2949 168.458 34.0907 168.539 33.8934C168.622 33.6961 168.742 33.521 168.897 33.3682C169.056 33.2153 169.249 33.0931 169.477 33.0014C169.707 32.9097 169.971 32.8638 170.269 32.8638C170.602 32.8638 170.905 32.9166 171.177 33.0222C171.452 33.1278 171.694 33.2807 171.903 33.4807L171.707 33.8642Z" fill="#3500D3"/>
<path d="M176.393 34.6812V38.9036H175.952C175.846 38.9036 175.779 38.8522 175.752 38.7494L175.693 38.2951C175.51 38.4979 175.304 38.6619 175.076 38.7869C174.848 38.9092 174.587 38.9703 174.293 38.9703C174.062 38.9703 173.858 38.9328 173.68 38.8578C173.505 38.78 173.358 38.6716 173.238 38.5326C173.119 38.3937 173.028 38.2256 172.967 38.0283C172.909 37.831 172.88 37.6128 172.88 37.3739V34.6812H173.622V37.3739C173.622 37.6934 173.694 37.9408 173.838 38.1158C173.986 38.2909 174.209 38.3784 174.509 38.3784C174.729 38.3784 174.933 38.327 175.122 38.2242C175.314 38.1186 175.49 37.9741 175.651 37.7907V34.6812H176.393Z" fill="#3500D3"/>
<path d="M178.316 37.8866C178.452 38.07 178.601 38.1992 178.762 38.2742C178.923 38.3492 179.104 38.3868 179.304 38.3868C179.698 38.3868 180.001 38.2464 180.213 37.9658C180.424 37.6851 180.529 37.2849 180.529 36.7653C180.529 36.4902 180.504 36.254 180.454 36.0567C180.407 35.8594 180.338 35.6982 180.246 35.5732C180.154 35.4454 180.042 35.3523 179.908 35.2939C179.775 35.2356 179.623 35.2064 179.454 35.2064C179.212 35.2064 179 35.262 178.816 35.3731C178.636 35.4843 178.469 35.6413 178.316 35.8441V37.8866ZM178.278 35.3356C178.456 35.1161 178.662 34.9396 178.895 34.8062C179.129 34.6728 179.396 34.6062 179.696 34.6062C179.94 34.6062 180.161 34.6534 180.358 34.7479C180.556 34.8396 180.724 34.9771 180.863 35.1605C181.002 35.3412 181.109 35.5662 181.184 35.8358C181.259 36.1053 181.296 36.4152 181.296 36.7653C181.296 37.0765 181.255 37.3669 181.171 37.6365C181.088 37.9032 180.967 38.1353 180.809 38.3326C180.653 38.5271 180.461 38.6813 180.233 38.7952C180.008 38.9064 179.754 38.962 179.471 38.962C179.212 38.962 178.99 38.9189 178.804 38.8328C178.62 38.7438 178.458 38.6216 178.316 38.4659V40.3333H177.57V34.6812H178.016C178.121 34.6812 178.187 34.7326 178.212 34.8354L178.278 35.3356Z" fill="#3500D3"/>
<path d="M182.989 37.8866C183.125 38.07 183.274 38.1992 183.435 38.2742C183.596 38.3492 183.777 38.3868 183.977 38.3868C184.371 38.3868 184.674 38.2464 184.886 37.9658C185.097 37.6851 185.202 37.2849 185.202 36.7653C185.202 36.4902 185.177 36.254 185.127 36.0567C185.08 35.8594 185.011 35.6982 184.919 35.5732C184.827 35.4454 184.715 35.3523 184.581 35.2939C184.448 35.2356 184.296 35.2064 184.127 35.2064C183.885 35.2064 183.673 35.262 183.489 35.3731C183.309 35.4843 183.142 35.6413 182.989 35.8441V37.8866ZM182.951 35.3356C183.129 35.1161 183.335 34.9396 183.568 34.8062C183.802 34.6728 184.069 34.6062 184.369 34.6062C184.613 34.6062 184.834 34.6534 185.031 34.7479C185.229 34.8396 185.397 34.9771 185.536 35.1605C185.675 35.3412 185.782 35.5662 185.857 35.8358C185.932 36.1053 185.969 36.4152 185.969 36.7653C185.969 37.0765 185.928 37.3669 185.844 37.6365C185.761 37.9032 185.64 38.1353 185.482 38.3326C185.326 38.5271 185.134 38.6813 184.906 38.7952C184.681 38.9064 184.427 38.962 184.144 38.962C183.885 38.962 183.663 38.9189 183.477 38.8328C183.293 38.7438 183.131 38.6216 182.989 38.4659V40.3333H182.243V34.6812H182.689C182.794 34.6812 182.86 34.7326 182.885 34.8354L182.951 35.3356Z" fill="#3500D3"/>
<path d="M188.696 34.6145C189.004 34.6145 189.282 34.6659 189.529 34.7687C189.777 34.8715 189.988 35.0174 190.163 35.2064C190.338 35.3953 190.471 35.6246 190.563 35.8941C190.658 36.1609 190.705 36.4596 190.705 36.7903C190.705 37.1238 190.658 37.4239 190.563 37.6907C190.471 37.9574 190.338 38.1853 190.163 38.3742C189.988 38.5632 189.777 38.7091 189.529 38.8119C189.282 38.9119 189.004 38.962 188.696 38.962C188.384 38.962 188.104 38.9119 187.854 38.8119C187.606 38.7091 187.395 38.5632 187.22 38.3742C187.045 38.1853 186.91 37.9574 186.816 37.6907C186.724 37.4239 186.678 37.1238 186.678 36.7903C186.678 36.4596 186.724 36.1609 186.816 35.8941C186.91 35.6246 187.045 35.3953 187.22 35.2064C187.395 35.0174 187.606 34.8715 187.854 34.7687C188.104 34.6659 188.384 34.6145 188.696 34.6145ZM188.696 38.3826C189.113 38.3826 189.424 38.2436 189.629 37.9658C189.835 37.6851 189.938 37.2947 189.938 36.7945C189.938 36.2915 189.835 35.8997 189.629 35.619C189.424 35.3384 189.113 35.198 188.696 35.198C188.484 35.198 188.3 35.2342 188.141 35.3064C187.986 35.3787 187.855 35.4829 187.749 35.619C187.647 35.7552 187.569 35.9233 187.516 36.1234C187.466 36.3207 187.441 36.5444 187.441 36.7945C187.441 37.2947 187.544 37.6851 187.749 37.9658C187.958 38.2436 188.273 38.3826 188.696 38.3826Z" fill="#3500D3"/>
<path d="M192.35 35.5273C192.484 35.2383 192.648 35.0133 192.842 34.8521C193.037 34.6881 193.274 34.6062 193.555 34.6062C193.644 34.6062 193.729 34.6159 193.809 34.6353C193.893 34.6548 193.966 34.6853 194.03 34.727L193.976 35.2814C193.959 35.3509 193.918 35.3856 193.851 35.3856C193.812 35.3856 193.755 35.3773 193.68 35.3606C193.605 35.3439 193.52 35.3356 193.426 35.3356C193.292 35.3356 193.173 35.355 193.067 35.394C192.964 35.4329 192.871 35.4912 192.788 35.569C192.707 35.644 192.634 35.7385 192.567 35.8525C192.503 35.9636 192.445 36.0914 192.392 36.2359V38.9036H191.646V34.6812H192.071C192.152 34.6812 192.207 34.6965 192.238 34.727C192.268 34.7576 192.289 34.8104 192.3 34.8854L192.35 35.5273Z" fill="#3500D3"/>
<path d="M195.979 38.9703C195.645 38.9703 195.388 38.8772 195.208 38.691C195.03 38.5049 194.941 38.2367 194.941 37.8866V35.3022H194.432C194.388 35.3022 194.35 35.2897 194.32 35.2647C194.289 35.2369 194.274 35.1953 194.274 35.1397V34.8437L194.966 34.7562L195.137 33.4515C195.145 33.4099 195.163 33.3765 195.191 33.3515C195.222 33.3237 195.26 33.3098 195.308 33.3098H195.683V34.7645H196.904V35.3022H195.683V37.8365C195.683 38.0144 195.726 38.1464 195.812 38.2325C195.898 38.3187 196.009 38.3617 196.146 38.3617C196.223 38.3617 196.29 38.352 196.346 38.3326C196.404 38.3103 196.454 38.2867 196.496 38.2617C196.537 38.2367 196.572 38.2145 196.6 38.195C196.63 38.1728 196.657 38.1617 196.679 38.1617C196.718 38.1617 196.753 38.1853 196.783 38.2325L197 38.5868C196.872 38.7063 196.718 38.8008 196.537 38.8703C196.357 38.937 196.171 38.9703 195.979 38.9703Z" fill="#3500D3"/>
<path fill-rule="evenodd" clip-rule="evenodd" d="M23.9674 0C28.6657 0 33.1716 1.83366 36.4938 5.09759C39.816 8.36152 41.6824 12.7884 41.6824 17.4042C41.6824 22.0201 39.816 26.447 36.4938 29.7109C33.1716 32.9748 28.6657 34.8085 23.9674 34.8085H22.9253V36.8356C22.9253 37.1073 22.8708 37.3764 22.7649 37.6275C22.659 37.8785 22.5038 38.1066 22.3081 38.2986C22.1124 38.4907 21.8801 38.643 21.6245 38.7468C21.3688 38.8506 21.0949 38.9039 20.8183 38.9036C15.6914 38.8995 10.4977 37.2185 6.55665 33.7765C2.58014 30.2998 0.00416824 25.1338 0 18.4465V17.4042C0 12.7884 1.8664 8.36152 5.18861 5.09759C8.51083 1.83366 13.0167 0 17.715 0H23.9674ZM13.5468 14.3329C12.7177 14.3329 11.9225 14.6565 11.3362 15.2325C10.75 15.8085 10.4206 16.5897 10.4206 17.4042C10.4206 18.2188 10.75 19 11.3362 19.576C11.9225 20.152 12.7177 20.4756 13.5468 20.4756C14.3759 20.4756 15.1711 20.152 15.7573 19.576C16.3436 19 16.673 18.2188 16.673 17.4042C16.673 16.5897 16.3436 15.8085 15.7573 15.2325C15.1711 14.6565 14.3759 14.3329 13.5468 14.3329ZM28.1356 14.3329C27.3065 14.3329 26.5114 14.6565 25.9251 15.2325C25.3388 15.8085 25.0095 16.5897 25.0095 17.4042C25.0095 18.2188 25.3388 19 25.9251 19.576C26.5114 20.152 27.3065 20.4756 28.1356 20.4756C28.9648 20.4756 29.7599 20.152 30.3462 19.576C30.9325 19 31.2618 18.2188 31.2618 17.4042C31.2618 16.5897 30.9325 15.8085 30.3462 15.2325C29.7599 14.6565 28.9648 14.3329 28.1356 14.3329Z" fill="#3500D3"/>
</svg>
