<svg width="64" height="64" viewBox="0 0 64 64" fill="none" xmlns="http://www.w3.org/2000/svg">
<path d="M24.408 14.4213C27.7867 8.36266 29.4747 5.33333 32 5.33333C34.5253 5.33333 36.2133 8.36266 39.592 14.4213L40.4667 15.9893C41.4267 17.712 41.9067 18.5733 42.6533 19.1413C43.4 19.7093 44.3333 19.92 46.2 20.3413L47.896 20.7253C54.456 22.2107 57.7333 22.952 58.5147 25.4613C59.2933 27.968 57.0587 30.584 52.5867 35.8133L51.4293 37.1653C50.16 38.6507 49.5227 39.3947 49.2373 40.312C48.952 41.232 49.048 42.224 49.24 44.2053L49.416 46.0107C50.0907 52.9893 50.4293 56.4773 48.3867 58.0267C46.344 59.5787 43.272 58.1627 37.1333 55.336L35.5413 54.6053C33.7973 53.8 32.9253 53.4 32 53.4C31.0747 53.4 30.2027 53.8 28.4587 54.6053L26.8693 55.336C20.728 58.1627 17.656 59.576 15.616 58.0293C13.5707 56.4773 13.9093 52.9893 14.584 46.0107L14.76 44.208C14.952 42.224 15.048 41.232 14.76 40.3147C14.4773 39.3947 13.84 38.6507 12.5707 37.168L11.4133 35.8133C6.94133 30.5867 4.70666 27.9707 5.48533 25.4613C6.26666 22.952 9.54666 22.208 16.1067 20.7253L17.8027 20.3413C19.6667 19.92 20.5973 19.7093 21.3467 19.1413C22.0933 18.5733 22.5733 17.712 23.5333 15.9893L24.408 14.4213Z" fill="#240090"/>
</svg>
